<svg id="Layer_1" data-name="Layer 1" xmlns="http://www.w3.org/2000/svg" xmlns:xlink="http://www.w3.org/1999/xlink" viewBox="0 0 85 85"><defs><style>.cls-1{fill:#75489c;}.cls-2{fill:url(#linear-gradient);}.cls-3{fill:#fff;}.cls-4{fill:url(#linear-gradient-2);}</style><linearGradient id="linear-gradient" x1="41.94" y1="83.32" x2="41.94" y2="1.09" gradientUnits="userSpaceOnUse"><stop offset="0" stop-color="#010101" stop-opacity="0.8"/><stop offset="0.66" stop-color="#010101" stop-opacity="0"/></linearGradient><linearGradient id="linear-gradient-2" x1="58.11" y1="756.81" x2="58" y2="789.65" gradientTransform="matrix(1, 0, 0, -1, -16.77, 803)" gradientUnits="userSpaceOnUse"><stop offset="0" stop-color="#010101"/><stop offset="1" stop-color="#010101" stop-opacity="0"/></linearGradient></defs><title>Artboard 1 copy</title><circle class="cls-1" cx="41.94" cy="42.21" r="33.83"/><circle class="cls-2" cx="41.94" cy="42.21" r="41.11"/><circle class="cls-3" cx="41.94" cy="42.21" r="32.5"/><path class="cls-4" d="M57.48,51.55a21.75,21.75,0,0,1-2.15,3.87,19.64,19.64,0,0,1-2.77,3.35A5.37,5.37,0,0,1,49,60.33a8.92,8.92,0,0,1-3.29-.79,9.44,9.44,0,0,0-3.54-.78,9.76,9.76,0,0,0-3.64.78,9.8,9.8,0,0,1-3.15.83,5.06,5.06,0,0,1-3.64-1.61,20.63,20.63,0,0,1-2.9-3.47,24,24,0,0,1-3.06-6.09A22.29,22.29,0,0,1,24.49,42,13.25,13.25,0,0,1,26.23,35a10.2,10.2,0,0,1,3.64-3.69,9.8,9.8,0,0,1,4.93-1.39,11.6,11.6,0,0,1,3.81.89,12.25,12.25,0,0,0,3,.89,18.08,18.08,0,0,0,3.35-1,11.07,11.07,0,0,1,4.55-.81,9.67,9.67,0,0,1,7.58,4,8.75,8.75,0,0,0-1.7,14,9.11,9.11,0,0,0,2.77,1.82Q57.85,50.66,57.48,51.55ZM49.76,21.17a8.53,8.53,0,0,1-2.19,5.6c-1.76,2.06-3.88,3.24-6.19,3.06a6.23,6.23,0,0,1,0-.76,8.77,8.77,0,0,1,2.32-5.66,8.93,8.93,0,0,1,2.83-2.12,8.43,8.43,0,0,1,3.23-.92,7.27,7.27,0,0,1,0,.8Z"/></svg>