<svg id="Layer_1" data-name="Layer 1" xmlns="http://www.w3.org/2000/svg" xmlns:xlink="http://www.w3.org/1999/xlink" viewBox="0 0 85 85"><defs><style>.cls-1{fill:#75489c;}.cls-2{fill:url(#linear-gradient);}.cls-3{fill:#fff;}.cls-4{fill:url(#linear-gradient-2);}</style><linearGradient id="linear-gradient" x1="42.09" y1="83.26" x2="42.09" y2="1.04" gradientUnits="userSpaceOnUse"><stop offset="0" stop-color="#010101" stop-opacity="0.8"/><stop offset="0.66" stop-color="#010101" stop-opacity="0"/></linearGradient><linearGradient id="linear-gradient-2" x1="41.8" y1="782.09" x2="41.8" y2="746.09" gradientTransform="matrix(1, 0, 0, -1, 0, 807)" gradientUnits="userSpaceOnUse"><stop offset="0" stop-color="#f16462"/><stop offset="1" stop-color="#ee3f46"/></linearGradient></defs><title>Artboard 1 copy 2</title><circle class="cls-1" cx="42.09" cy="42.15" r="33.83"/><circle class="cls-2" cx="42.09" cy="42.15" r="41.11"/><circle class="cls-3" cx="42.09" cy="42.15" r="32.5"/><g id="ic_ag" data-name="ic ag"><g id="编组"><path id="Fill-1" class="cls-4" d="M33.9,24.91c-7.4,0-10.1,2.7-10.1,10.1v15.8c0,7.39,2.71,10.1,10.1,10.1H49.69c7.4,0,10.11-2.7,10.11-10.1V35c0-7.39-2.71-10.1-10.1-10.1Z"/><path id="path14" class="cls-3" d="M39.5,45.79h1.45l-.73-1.69Zm-.36.85-.43,1h-1l2.08-4.71h.84l2.07,4.71h-1l-.42-1Zm15.71,1h.94V42.91h-.94Zm-3.76-2h1.74v-.86H51.1v-1h2.52v-.86H50.15v4.71h3.56v-.86H51.1Zm-3.75.56-1.07-3.24H45.5l-1.07,3.24-1-3.24h-1L44,47.62h.79l1.07-3.09,1.07,3.09h.8l1.64-4.71h-1ZM36.3,45.6c0,.77-.38,1.18-1.07,1.18s-1.08-.42-1.08-1.21V42.91h-1V45.6a1.87,1.87,0,0,0,2,2.09,1.9,1.9,0,0,0,2-2.12V42.91h-1Zm-5.39-2.7h1v4.71h-1V45.71H28.75v1.91h-1V42.91h1v1.9h2.16Z"/><path id="Fill-3" class="cls-3" d="M41.8,36.91a6,6,0,0,1-6-6h.85a5.15,5.15,0,0,0,10.3,0h.85a6,6,0,0,1-6,6"/></g></g></svg>