<svg id="Layer_1" data-name="Layer 1" xmlns="http://www.w3.org/2000/svg" xmlns:xlink="http://www.w3.org/1999/xlink" viewBox="0 0 85 85"><defs><style>.cls-1{fill:url(#linear-gradient);}.cls-2{fill:#75489c;}.cls-3{fill:#fff;}.cls-4{fill:#fed401;}.cls-5{fill:#ef3d39;}.cls-6{fill:#7cc242;}.cls-7{fill:#4dc9f5;}</style><linearGradient id="linear-gradient" x1="42.24" y1="82.89" x2="42.24" y2="0.67" gradientUnits="userSpaceOnUse"><stop offset="0" stop-color="#010101" stop-opacity="0.8"/><stop offset="0.66" stop-color="#010101" stop-opacity="0"/></linearGradient></defs><title>Artboard 1</title><circle class="cls-1" cx="42.24" cy="41.78" r="41.11"/><circle class="cls-2" cx="42.24" cy="41.78" r="33.83"/><circle class="cls-3" cx="42.24" cy="41.78" r="32.5"/><path id="path16" class="cls-4" d="M52,47.17c4.14-2.28,7.31-4,7.58-4.14.87-.46,1.76-1.68,0-2.63-.57-.3-3.63-2-7.58-4.14l-5.44,5.47Z"/><path id="path23" class="cls-5" d="M46.57,41.72,29.18,59.25a2.31,2.31,0,0,0,1.41-.35L52,47.17l-5.44-5.44Z"/><path id="path30" class="cls-6" d="M46.57,41.72,52,36.25s-20.21-11-21.43-11.67a2.12,2.12,0,0,0-1.44-.27Z"/><path id="path37" class="cls-7" d="M46.57,41.72,29.16,24.31c-.7.16-1.3.79-1.3,2.06V57.19c0,1.16.46,2,1.33,2.09Z"/></svg>